<svg width="11" height="19" viewBox="0 0 11 19" fill="none" xmlns="http://www.w3.org/2000/svg">
<path fill-rule="evenodd" clip-rule="evenodd" d="M2.5 6.66667V5C2.5 2.23858 4.73858 0 7.5 0H10C10.4602 0 10.8333 0.373096 10.8333 0.833333V4.16667C10.8333 4.6269 10.4602 5 10 5H7.5V6.66667H10C10.5421 6.66667 10.9399 7.17616 10.8085 7.70211L9.97512 11.0354C9.88238 11.4064 9.54906 11.6667 9.16667 11.6667H7.5V17.5C7.5 17.9602 7.1269 18.3333 6.66667 18.3333H3.33333C2.8731 18.3333 2.5 17.9602 2.5 17.5V11.6667H0.833333C0.373096 11.6667 0 11.2936 0 10.8333V7.5C0 7.03976 0.373096 6.66667 0.833333 6.66667H2.5ZM9.16667 1.66667H7.5C5.65905 1.66667 4.16667 3.15905 4.16667 5V7.5C4.16667 7.96024 3.79357 8.33333 3.33333 8.33333H1.66667V10H3.33333C3.79357 10 4.16667 10.3731 4.16667 10.8333V16.6667H5.83333V10.8333C5.83333 10.3731 6.20643 10 6.66667 10H8.51602L8.93269 8.33333H6.66667C6.20643 8.33333 5.83333 7.96024 5.83333 7.5V5C5.83333 4.07953 6.57952 3.33333 7.5 3.33333H9.16667V1.66667Z" fill="#7F7F7F"/>
</svg>
