<svg width="19" height="19" viewBox="0 0 19 19" fill="none" xmlns="http://www.w3.org/2000/svg">
<path fill-rule="evenodd" clip-rule="evenodd" d="M18.3333 5C18.3333 2.23858 16.0948 0 13.3333 0H5C2.23858 0 0 2.23858 0 5V13.3333C0 16.0948 2.23858 18.3333 5 18.3333H13.3333C16.0948 18.3333 18.3333 16.0948 18.3333 13.3333V5ZM5 1.66667H13.3333C15.1743 1.66667 16.6667 3.15905 16.6667 5V13.3333C16.6667 15.1743 15.1743 16.6667 13.3333 16.6667H5C3.15905 16.6667 1.66667 15.1743 1.66667 13.3333V5C1.66667 3.15905 3.15905 1.66667 5 1.66667ZM13.3243 8.51934C13.0551 6.70374 11.6295 5.27816 9.81391 5.00893C8.03581 4.74526 6.28907 5.65161 5.48092 7.25723C4.67276 8.86285 4.9854 10.8057 6.25645 12.0768C7.5275 13.3479 9.4704 13.6605 11.076 12.8523C12.6816 12.0442 13.588 10.2974 13.3243 8.51934ZM6.96965 8.00656C7.45454 7.04319 8.50259 6.49938 9.56944 6.65758C10.6588 6.81912 11.5142 7.67447 11.6757 8.76383C11.8339 9.83069 11.2901 10.8787 10.3267 11.3636C9.36334 11.8485 8.1976 11.6609 7.43497 10.8983C6.67234 10.1357 6.48476 8.96994 6.96965 8.00656ZM14.3393 5.17259C14.0138 5.49803 13.4862 5.49803 13.1607 5.17259C12.8353 4.84715 12.8353 4.31951 13.1607 3.99408C13.4862 3.66864 14.0138 3.66864 14.3393 3.99408C14.6647 4.31951 14.6647 4.84715 14.3393 5.17259Z" fill="#7F7F7F"/>
</svg>
