<svg width="20" height="17" viewBox="0 0 20 17" fill="none" xmlns="http://www.w3.org/2000/svg">
<path fill-rule="evenodd" clip-rule="evenodd" d="M9.17098 4.40112C9.23674 2.57662 10.387 0.956631 12.1062 0.300417C13.7166 -0.314211 15.518 0.0342561 16.779 1.16279C17.4558 0.914028 18.0977 0.577371 18.688 0.160955C19.3172 -0.282867 20.1602 0.29099 19.978 1.03911C19.6926 2.21123 19.1204 3.29159 18.3157 4.18444C18.3281 4.31941 18.3346 4.45528 18.335 4.59192C18.335 14.4748 8.79662 19.5517 0.430303 14.9037C-0.336932 14.4775 -0.00886577 13.3077 0.868126 13.3426C2.27363 13.3985 3.66496 13.1191 4.93014 12.5363C3.09335 11.4041 1.91723 9.90524 1.34025 8.13209C0.744521 6.30132 0.831475 4.3774 1.32847 2.55023C1.4788 1.99752 1.6316 1.58107 1.74016 1.33681C2.00322 0.744925 2.81139 0.666275 3.18364 1.19633C4.52688 3.10903 6.62286 4.32869 8.91289 4.5741L9.1681 4.59735L9.17098 4.40112ZM17.3647 2.72319L17.0799 2.82335L16.7919 2.91488C16.4781 3.00939 16.138 2.91113 15.9229 2.6638C15.1243 1.7456 13.8374 1.42361 12.7006 1.85754C11.5637 2.29146 10.8186 3.389 10.835 4.61694V5.45027C10.835 5.9021 10.4749 6.27161 10.0233 6.28333C7.30598 6.35378 4.70995 5.28413 2.83838 3.37799C2.50918 4.7989 2.48511 6.26421 2.92511 7.6164C3.4893 9.35024 4.78084 10.7578 7.00678 11.7471C7.60408 12.0126 7.67717 12.831 7.13635 13.1981C6.20377 13.8311 5.18193 14.3062 4.11166 14.6117C10.511 16.2953 16.6683 12.0471 16.6683 4.59469C16.6677 4.41416 16.6504 4.23406 16.6165 4.05673C16.5643 3.78351 16.6518 3.50225 16.8499 3.30693C17.0355 3.12386 17.2074 2.92874 17.3647 2.72319Z" fill="#7F7F7F"/>
</svg>
