<svg width="20" height="20" viewBox="0 0 20 20" fill="none" xmlns="http://www.w3.org/2000/svg">
<rect width="20" height="20" fill="white" fill-opacity="0.01"/>
<path fill-rule="evenodd" clip-rule="evenodd" d="M9.80243 2.50049L10.2863 2.5008L11.3957 2.51058C11.9672 2.51804 12.5583 2.52954 13.1438 2.546L13.7265 2.56414C15.4823 2.62438 16.7328 2.71943 17.394 2.88144C18.4797 3.18861 19.3182 4.05305 19.6039 5.20203C19.8774 6.71815 20.0101 8.25631 20.0005 9.78863C20.0059 11.3062 19.8732 12.821 19.5922 14.369C19.3182 15.4635 18.4797 16.328 17.3825 16.6383C16.8241 16.7877 15.7962 16.8861 14.3687 16.9528L13.7765 16.9778C13.1563 17.0015 12.5038 17.0189 11.8434 17.0308L10.5256 17.0476H9.47536L8.15759 17.0308C7.49714 17.0189 6.84465 17.0015 6.22445 16.9778L5.63227 16.9528C4.20466 16.8861 3.17634 16.7875 2.61388 16.6371C1.55108 16.3463 0.717483 15.5213 0.39705 14.3812C0.123574 12.8651 -0.00917459 11.327 0.000492182 9.79575C-0.00706305 8.2667 0.125677 6.74019 0.408753 5.18096C0.682723 4.08638 1.52123 3.22194 2.61851 2.91159C3.19792 2.75663 4.28481 2.65619 5.7958 2.58964L6.88706 2.54945C7.56163 2.52892 8.23815 2.51562 8.87593 2.50796L9.80243 2.50049ZM9.80336 4.16716L9.35845 4.16987C8.63098 4.17572 7.83357 4.189 7.03777 4.21236L5.92851 4.25224C4.51593 4.31381 3.48042 4.40631 3.06068 4.51849C2.54941 4.66314 2.15456 5.0702 2.03725 5.53119C1.78398 6.93566 1.66009 8.3604 1.66713 9.79686C1.65811 11.2347 1.782 12.6703 2.01862 14.005C2.16073 14.5041 2.55327 14.8926 3.04912 15.0283C3.48745 15.1455 4.56205 15.2403 6.02578 15.3019L6.9067 15.3336C7.32533 15.3464 7.75515 15.3566 8.18874 15.3644L9.4874 15.3809H10.5136L11.8122 15.3644C12.2458 15.3566 12.6756 15.3464 13.0943 15.3336L13.9752 15.3019L14.7123 15.2662C15.7978 15.2063 16.5883 15.1255 16.9403 15.0314C17.4516 14.8868 17.8464 14.4797 17.9637 14.0188C18.215 12.6249 18.3389 11.211 18.3338 9.7864C18.3429 8.34854 18.219 6.91294 17.9754 5.5523C17.8464 5.03687 17.4516 4.6298 16.9695 4.49284C16.5731 4.39605 15.6748 4.31667 14.4454 4.26061L13.6693 4.22983C12.9103 4.20379 12.1244 4.1869 11.3737 4.1771L10.282 4.16746L9.80336 4.16716ZM7.29215 7.06653C7.29215 6.42744 7.9819 6.02621 8.53744 6.34214L13.3291 9.06714C13.8909 9.38665 13.8909 10.1964 13.3291 10.5159L8.53744 13.2409C7.9819 13.5568 7.29215 13.1556 7.29215 12.5165V7.06653ZM8.95881 11.0839L11.2314 9.7915L8.95881 8.49908V11.0839Z" fill="#7F7F7F"/>
</svg>
