<svg width="100" height="20" viewBox="0 0 100 20" fill="none" xmlns="http://www.w3.org/2000/svg">
<path d="M7.83302 3.04878C6.66041 3.04878 6.30863 3.56473 6.30863 4.71388V6.61351H9.45122L9.14634 9.70919H6.30863V19.0666H2.53283V9.70919H0V6.63696H2.53283V4.78424C2.53283 1.64165 3.79925 0 7.29362 0C8.02064 0 8.77111 0.0469043 9.49812 0.140713V3.04878" fill="#004F9D"/>
<path fill-rule="evenodd" clip-rule="evenodd" d="M14.8216 6.35559C11.3507 6.35559 9.709 8.98223 9.709 12.4532L9.68555 13.2505C9.68555 16.7449 11.3507 19.3481 14.7981 19.3481C16.6743 19.3481 17.8703 18.41 18.3863 17.2139V19.0901H22.0214V6.63702H18.4097V8.53664C17.8469 7.31713 16.6977 6.35559 14.8216 6.35559ZM15.9238 16.3931C14.1649 16.3931 13.4848 15.1502 13.4848 13.2974V12.4062C13.4848 10.5301 14.1649 9.31056 15.9238 9.31056C17.4482 9.31056 18.2456 10.4363 18.2456 12.2186V13.485C18.2456 15.2674 17.4717 16.3931 15.9238 16.3931Z" fill="#004F9D"/>
<path d="M29.8546 6.35559C31.3086 6.35559 32.7158 6.66047 33.4662 7.19987L32.622 9.87341C31.848 9.49818 30.9803 9.31056 30.1126 9.31056C28.0722 9.31056 27.1811 10.4832 27.1811 12.5001V13.2271C27.1811 15.244 28.0722 16.4166 30.1126 16.4166C30.9803 16.4166 31.848 16.2055 32.622 15.8303L33.4662 18.5038C32.7158 19.0198 31.3321 19.3481 29.8546 19.3481C25.4221 19.3481 23.4287 16.9794 23.4287 13.1567V12.5704C23.4287 8.74771 25.4221 6.35559 29.8546 6.35559Z" fill="#004F9D"/>
<path fill-rule="evenodd" clip-rule="evenodd" d="M33.959 12.2186V13.3209C33.959 16.9794 35.7413 19.3481 40.5256 19.3715C42.3314 19.3715 44.3717 18.9729 45.3567 18.4569L44.6766 15.8772C43.3868 16.3697 42.0265 16.6276 40.6663 16.6276C38.5791 16.6276 37.8051 15.8772 37.7348 14.1652H45.6616V12.1717C45.6616 8.70081 43.9496 6.35559 40.08 6.35559C35.9759 6.35559 33.959 8.67735 33.959 12.2186ZM42.2845 11.6792H37.7348C37.7348 10.0141 38.3914 8.93533 40.08 8.93533C41.7451 8.93533 42.2845 10.0141 42.2845 11.3744V11.6792Z" fill="#004F9D"/>
<path fill-rule="evenodd" clip-rule="evenodd" d="M54.5026 19.348C57.9735 19.348 59.6386 16.7214 59.6386 13.2504L59.6621 12.4765C59.6621 8.98215 57.9735 6.37896 54.526 6.37896C52.7671 6.37896 51.5476 7.27014 51.0082 8.37239V0.046875L47.2324 0.375205V19.09H50.7971V17.2139C51.3131 18.4099 52.6264 19.348 54.5026 19.348ZM53.3769 9.31048C55.1827 9.31048 55.8628 10.6238 55.8628 12.3827V13.3208C55.8628 15.0797 55.1827 16.393 53.3769 16.393C51.8525 16.393 51.0082 15.2908 51.0082 13.5084V12.1951C51.0082 10.4127 51.829 9.31048 53.3769 9.31048Z" fill="#004F9D"/>
<path fill-rule="evenodd" clip-rule="evenodd" d="M60.8818 12.5235V13.1567C60.8818 16.7683 62.9222 19.3246 67.0732 19.3246C71.2242 19.3246 73.2646 16.7449 73.2646 13.1567V12.5235C73.2646 8.93533 71.2242 6.35559 67.0732 6.35559C62.9222 6.35559 60.8818 8.93533 60.8818 12.5235ZM67.0732 9.31056C68.8321 9.31056 69.5122 10.6239 69.5122 12.2655V13.4381C69.5122 15.0798 68.8321 16.3931 67.0732 16.3931C65.3143 16.3931 64.6342 15.0798 64.6342 13.4381V12.2655C64.6342 10.6239 65.3143 9.31056 67.0732 9.31056Z" fill="#004F9D"/>
<path fill-rule="evenodd" clip-rule="evenodd" d="M74.5547 12.5235V13.1567C74.5547 16.7683 76.595 19.3246 80.7461 19.3246C84.8971 19.3246 86.9374 16.7449 86.9374 13.1567V12.5235C86.9374 8.93533 84.8971 6.35559 80.7461 6.35559C76.595 6.35559 74.5547 8.93533 74.5547 12.5235ZM80.7461 9.31056C82.505 9.31056 83.1851 10.6239 83.1851 12.2655V13.4381C83.1851 15.0798 82.505 16.3931 80.7461 16.3931C78.9871 16.3931 78.307 15.0798 78.307 13.4381V12.2655C78.307 10.6239 78.9871 9.31056 80.7461 9.31056Z" fill="#004F9D"/>
<path d="M92.1205 12.5703L95.8494 6.61349H99.8363L95.9432 12.7814L100 19.09H95.9901L92.1205 12.9925V19.09H88.3682V0.37522L92.1205 0.0234375" fill="#004F9D"/>
</svg>
