<svg width="101" height="33" viewBox="0 0 101 33" fill="none" xmlns="http://www.w3.org/2000/svg">
<path d="M12.3501 0H13.239C16.325 0.0670873 19.3607 1.3082 21.541 3.50531C20.736 4.32713 19.9142 5.1154 19.1259 5.93722C17.9015 4.83028 16.4256 3.97492 14.8155 3.67303C12.4339 3.16987 9.86783 3.62271 7.87199 4.98123C5.69165 6.40683 4.21573 8.82197 3.89707 11.4048C3.54486 13.9541 4.26605 16.6376 5.92646 18.6167C7.51978 20.5455 9.95169 21.753 12.4675 21.8369C14.8155 21.9711 17.2642 21.2499 18.9749 19.6063C20.3167 18.449 20.9372 16.688 21.1385 14.9772C18.3544 14.9772 15.5703 14.994 12.7861 14.9772V11.5222H24.5096C25.1134 15.2288 24.2413 19.405 21.4236 22.0549C19.5452 23.9334 16.9455 25.0403 14.2956 25.2584C11.7295 25.5099 9.07956 25.0235 6.79859 23.7824C4.06479 22.3233 1.88445 19.8578 0.811054 16.9563C-0.195255 14.2896 -0.212027 11.2707 0.727195 8.58717C1.58256 6.13848 3.2262 3.97492 5.33944 2.46546C7.36883 0.972765 9.83429 0.150946 12.3501 0Z" fill="#3780FF"/>
<path d="M79.6055 0.872192H83.1946V24.8223C82.0038 24.8223 80.7963 24.8391 79.6055 24.8056C79.6222 16.839 79.6055 8.85558 79.6055 0.872192Z" fill="#38B137"/>
<path fill-rule="evenodd" clip-rule="evenodd" d="M38.9337 10.5495C37.1056 9.22448 34.7072 8.75487 32.4934 9.17417C29.7092 9.66055 27.2438 11.7235 26.3716 14.4237C25.4995 16.9395 25.8853 19.8914 27.4786 22.0382C28.8874 23.9837 31.2019 25.1745 33.5835 25.3087C36.1832 25.4764 38.8499 24.3694 40.4767 22.3065C41.9862 20.4616 42.5564 17.9123 42.1036 15.581C41.7514 13.5684 40.5941 11.7235 38.9337 10.5495ZM30.6485 13.8535C31.2522 13.1155 32.0908 12.5956 32.9965 12.3608C34.4389 11.9918 36.0322 12.4111 37.1224 13.4174C38.8163 14.9772 39.135 17.7278 38.0281 19.7236C37.3907 20.8977 36.2335 21.7866 34.9085 22.0214C33.4829 22.3065 31.9399 21.8201 30.9168 20.7803C29.1222 18.9689 29.0216 15.799 30.6485 13.8535Z" fill="#FA3913"/>
<path fill-rule="evenodd" clip-rule="evenodd" d="M57.4664 11.17C55.5712 9.39222 52.8038 8.6878 50.2713 9.17418C47.5375 9.64379 45.1223 11.6396 44.1999 14.256C43.2774 16.8221 43.6296 19.8411 45.2565 22.0382C46.6989 24.034 49.0973 25.2416 51.5292 25.3087C54.0785 25.4261 56.6613 24.3191 58.2547 22.3065C60.8878 19.1199 60.5524 13.9374 57.4664 11.17ZM48.4264 13.8367C49.0302 13.1156 49.8688 12.5956 50.7744 12.3608C52.2 11.9918 53.7934 12.3944 54.8835 13.4007C56.5943 14.9605 56.9129 17.711 55.8228 19.7237C55.1854 20.8977 54.0114 21.7698 52.7032 22.0214C51.2273 22.3233 49.634 21.7866 48.6109 20.6964C46.8834 18.8683 46.8163 15.7487 48.4264 13.8367Z" fill="#FCBD06"/>
<path fill-rule="evenodd" clip-rule="evenodd" d="M71.9236 9.64383C69.8439 8.60397 67.2778 8.93941 65.3491 10.147C63.0178 11.5726 61.4748 14.2058 61.4245 16.9396C61.3238 19.3547 62.3972 21.7866 64.2086 23.3632C66.0032 24.9397 68.5693 25.7448 70.9005 25.0907C71.9739 24.8391 72.8629 24.1682 73.6344 23.4135C73.6847 24.9733 73.6847 26.7175 72.6448 27.9922C71.6721 29.2333 69.9446 29.6023 68.4519 29.3339C66.9592 29.0656 65.7684 27.8916 65.1814 26.5163C64.7873 26.6879 64.3909 26.8498 63.9957 27.0113C63.348 27.2759 62.7036 27.5392 62.0786 27.8412C63.0849 30.2396 65.3491 32.1348 67.9487 32.5206C70.3806 32.8896 73.0809 32.3361 74.8419 30.5415C76.452 28.9146 77.0223 26.5498 77.039 24.3192V9.52642C76.4688 9.51804 75.9027 9.51804 75.3388 9.51804C74.7748 9.51804 74.213 9.51804 73.6511 9.50965C73.6427 9.74446 73.6427 9.97926 73.6427 10.212C73.6427 10.4447 73.6427 10.6753 73.6344 10.9017C73.1144 10.4153 72.5777 9.92895 71.9236 9.64383ZM66.1877 13.82C66.8418 13.0317 67.7978 12.4615 68.8208 12.2938C70.2129 12.0422 71.6888 12.5621 72.6113 13.6187C74.104 15.3295 74.2885 17.9962 73.1815 19.9585C72.5274 21.1157 71.3031 21.9543 69.9781 22.0885C68.5693 22.2395 67.1101 21.6357 66.2044 20.5455C64.6111 18.7006 64.6111 15.6985 66.1877 13.82Z" fill="#3780FF"/>
<path fill-rule="evenodd" clip-rule="evenodd" d="M95.2031 9.47608C92.6203 8.48654 89.5175 9.12387 87.5049 11.0023C84.3685 13.9038 84.1002 19.3044 86.8843 22.5246C88.5783 24.5707 91.3624 25.577 93.9788 25.2584C96.3436 25.0403 98.5407 23.665 99.8489 21.7027C99.3877 21.3925 98.9265 21.0864 98.4652 20.7803C98.004 20.4742 97.5428 20.1681 97.0816 19.8578C96.7126 20.3274 96.3268 20.8138 95.8405 21.1828C94.6161 22.1556 92.8718 22.3401 91.4127 21.8201C90.3728 21.4679 89.6013 20.5958 89.0982 19.6398C90.9179 18.8851 92.7334 18.1345 94.549 17.384C96.3645 16.6335 98.1801 15.8829 99.9999 15.1282C99.2116 12.7298 97.6518 10.3985 95.2031 9.47608ZM88.5112 16.9228C88.4944 15.9332 88.7292 14.9269 89.2994 14.1051C90.1884 12.7969 91.8488 11.9415 93.4421 12.2267C94.4316 12.3776 95.4044 12.9478 95.8069 13.8871C93.375 14.9101 90.9431 15.9165 88.5112 16.9228Z" fill="#FA3913"/>
</svg>
