<svg width="40" height="40" viewBox="0 0 40 40" fill="none" xmlns="http://www.w3.org/2000/svg">
<rect x="10" y="10" width="20" height="20" fill="white" fill-opacity="0.01"/>
<path fill-rule="evenodd" clip-rule="evenodd" d="M26.6658 19.9829C26.6616 19.7753 26.5803 19.5691 26.4219 19.4107L20.5886 13.5774C20.2632 13.2519 19.7355 13.2519 19.4101 13.5774C19.0847 13.9028 19.0847 14.4304 19.4101 14.7559L23.8208 19.1666L14.166 19.1666C13.7058 19.1666 13.3327 19.5397 13.3327 20C13.3327 20.4602 13.7058 20.8333 14.166 20.8333L23.8208 20.8333L19.4101 25.244C19.0847 25.5695 19.0847 26.0971 19.4101 26.4225C19.7355 26.748 20.2632 26.748 20.5886 26.4225L26.4219 20.5892C26.5025 20.5087 26.5631 20.4158 26.6038 20.3166C26.6418 20.224 26.6637 20.1229 26.6658 20.0171C26.6661 20.0057 26.6661 19.9943 26.6658 19.9829Z" fill="black"/>
</svg>
