<svg width="160" height="50" viewBox="0 0 160 50" fill="none" xmlns="http://www.w3.org/2000/svg">
<path fill-rule="evenodd" clip-rule="evenodd" d="M83.1535 26.9986C82.6842 27.3429 82.3894 27.2291 82.1438 26.782C81.7345 26.0379 81.4315 25.3215 81.83 24.4079C82.8997 21.9561 84.2288 19.6875 86.1145 17.7938C86.3874 17.5161 86.6194 17.2384 86.895 16.9774C87.1124 16.8059 87.3413 16.6501 87.58 16.5109C87.7246 16.6831 87.9157 16.8108 87.9429 16.9691C87.9522 17.1773 87.907 17.3842 87.812 17.5688C86.8704 19.8707 85.9453 22.181 84.9574 24.4607C84.5426 25.4186 84.0405 26.3461 83.1535 26.9986ZM145.017 26.9986C144.548 27.3429 144.253 27.2291 144.008 26.782C143.598 26.0379 143.295 25.3215 143.694 24.4079C144.764 21.9561 146.093 19.6875 147.978 17.7938C148.251 17.5161 148.483 17.2384 148.759 16.9774C148.976 16.8059 149.205 16.6501 149.444 16.5109C149.588 16.6831 149.78 16.8108 149.807 16.9691C149.816 17.1773 149.771 17.3842 149.676 17.5688C148.732 19.868 147.809 22.1782 146.821 24.4579C146.406 25.4186 145.904 26.3461 145.017 26.9986ZM124.528 8.39453C124.707 8.71737 124.951 8.99804 125.244 9.21808C125.537 9.43812 125.873 9.59255 126.229 9.67123C126.585 9.74991 126.953 9.75105 127.309 9.67459C127.666 9.59812 128.002 9.44577 128.297 9.22755C129.517 8.25224 130.47 6.97501 131.067 5.51784C131.539 4.44325 131.361 3.70186 130.447 2.91605C129.563 2.13193 128.445 1.6724 127.273 1.61098C126.657 1.5499 126.182 1.76093 125.939 2.34404C125.284 3.99064 124.574 5.62613 124.383 7.41712C124.341 7.74964 124.392 8.08761 124.531 8.39175L124.528 8.39453ZM105.698 33.0907C104.516 34.0459 103.04 33.7849 102.052 32.4799C101.645 31.9412 101.435 31.3914 101.752 30.775C102.529 29.2561 103.22 27.6789 104.074 26.21C105.324 24.0608 106.59 21.9089 108.034 19.9013C108.915 18.6712 110.113 17.6799 111.224 16.6414C111.497 16.3971 112.065 16.2082 112.351 16.3637C112.638 16.5192 112.731 17.094 112.935 17.5411C112.75 18.8961 112.662 20.2761 112.359 21.5979C112.051 23.1351 111.615 24.6428 111.055 26.1045C110.558 27.3263 109.745 28.3897 109.095 29.5393C108.255 30.9971 106.978 32.0495 105.698 33.088V33.0907ZM32.5441 33.9238C31.9983 34.2348 31.7254 34.1126 31.4307 33.5017C31.3602 33.3859 31.306 33.2607 31.2697 33.1296C31.2287 32.8686 31.2205 32.6048 31.1987 32.341L31.0868 32.3216C31.1389 31.7171 31.2208 31.1156 31.3324 30.5195C31.8237 28.4397 32.7542 26.6015 33.8377 24.8189C34.9556 22.8922 36.2671 21.0887 37.7511 19.4376C38.8918 18.2158 40.098 17.0662 41.5471 16.2221C42.2703 15.8001 43.16 16.0361 43.6866 16.7997C43.8447 16.9796 43.9336 17.2115 43.9371 17.4528C43.9406 17.694 43.8585 17.9285 43.7057 18.1131C42.1884 20.2845 40.7038 22.4809 39.2356 24.6884C37.7674 26.8959 36.3975 29.0589 34.9456 31.2192C34.4377 31.939 33.8911 32.6296 33.3082 33.2879C33.0929 33.5466 32.8354 33.7654 32.5468 33.9349L32.5441 33.9238ZM57.9239 27.1569C58.2295 29.5227 57.3781 31.4775 55.6561 33.0269C55.012 33.6072 54.0951 33.5461 53.2682 33.635C53.0591 33.6459 52.8496 33.6459 52.6405 33.635L52.6187 33.771C51.9255 33.6405 51.2187 33.56 50.5446 33.3629C49.6905 33.113 49.5213 32.516 50.1271 31.8273C50.6099 31.2987 51.1377 30.8145 51.7045 30.3807C53.3119 29.1034 54.9356 27.8511 56.5621 26.5988C57.3098 26.0406 57.812 26.2239 57.9321 27.168L57.9239 27.1569ZM43.2964 4.27664C44.0714 4.27664 44.5572 4.55431 44.882 5.26793C45.2694 6.03874 45.4385 6.904 45.3704 7.76699C45.2913 8.53892 45.0075 8.89712 44.2352 9.05817C43.2777 9.28767 42.3056 9.44911 41.3261 9.54132C39.6285 9.63749 37.937 9.82285 36.2583 10.0967C34.1379 10.4576 32.0174 10.8075 29.8997 11.1685C29.504 11.2351 29.1137 11.3462 28.718 11.4295C27.2662 11.7322 27.2635 11.7294 26.5621 12.9484C26.3779 13.2602 26.2103 13.5818 26.06 13.9119C25.2167 15.8167 24.439 17.7549 23.5275 19.6264C22.6733 21.3813 21.9692 23.1917 21.287 25.0132C20.7412 26.4544 20.2445 27.9149 19.7423 29.3727C19.3903 30.4001 19.0737 31.4414 18.7299 32.4715C18.2994 33.6161 18.0071 34.8095 17.8593 36.0257C17.8102 36.6089 17.6219 37.1809 17.5182 37.7612C17.2188 39.1923 17.3133 40.6796 17.7911 42.0596C17.8262 42.1428 17.8563 42.2281 17.8812 42.315C18.0231 42.8981 17.7392 43.3813 17.1743 43.3757C16.4184 43.3757 15.6297 43.3202 14.9775 42.9148C14.2658 42.4454 13.5873 41.9258 12.9471 41.3598C12.7008 41.1609 12.5023 40.9074 12.3666 40.6188C12.2309 40.3301 12.1616 40.0138 12.1639 39.6938C12.1639 39.0135 12.1038 38.3332 12.0684 37.6529C12.136 35.8328 12.4323 34.0291 12.9498 32.2855C13.7931 29.2311 14.9093 26.2517 15.9845 23.2695C16.9069 20.7149 17.8211 18.152 18.9591 15.6807C19.2047 15.1475 19.4531 14.6144 19.685 14.0757C19.6956 14.0329 19.6959 13.9882 19.6861 13.9453C19.6763 13.9023 19.6566 13.8624 19.6286 13.8287C19.6006 13.7951 19.5651 13.7687 19.5251 13.7518C19.4851 13.7349 19.4417 13.7279 19.3985 13.7314C18.6644 13.9285 17.9221 14.0979 17.2153 14.3451C15.264 15.0226 13.2964 15.6612 11.3916 16.4498C9.2302 17.3411 7.10977 18.3269 5.18582 19.7153C4.43828 20.2208 3.80026 20.8766 3.31099 21.6423C2.97805 22.1976 2.67513 22.753 2.72425 23.4194C2.73 23.5555 2.71807 23.6918 2.68877 23.8248C2.67474 23.9271 2.63465 24.0238 2.57248 24.1054C2.51031 24.187 2.42823 24.2506 2.3344 24.2899C2.24058 24.3292 2.13827 24.3428 2.03766 24.3295C1.93705 24.3161 1.84164 24.2761 1.76091 24.2135C0.901274 23.4527 0.167172 22.603 0.0716563 21.3813C0.0716563 21.3369 0.0716563 21.2897 0.0580113 21.2452C-0.173954 19.3598 0.273603 17.7715 1.69269 16.4221C2.58267 15.5921 3.57312 14.881 4.64001 14.3062C6.78634 13.1757 8.99818 12.1788 11.2633 11.3212C14.9366 9.84676 18.7217 8.76383 22.5232 7.72811C24.5563 7.17277 26.6331 6.80069 28.6853 6.32031C30.8685 5.8131 33.0653 5.39196 35.2758 5.0569C36.2037 4.91807 37.137 4.77923 38.0704 4.69593C39.8115 4.52099 41.5389 4.26553 43.2964 4.27664ZM70.1717 10.6881C68.3732 10.6881 66.6076 10.9963 64.8337 11.2129C64.8886 11.2743 64.9371 11.3413 64.9784 11.4128C65.0377 11.4891 65.0775 11.5791 65.0943 11.6748C65.1111 11.7705 65.1043 11.869 65.0746 11.9614C65.0449 12.0538 64.9931 12.1373 64.9239 12.2043C64.8547 12.2714 64.7703 12.32 64.6782 12.3458C64.6013 12.3796 64.5206 12.4039 64.438 12.418C62.8006 12.654 61.6053 13.7342 60.4891 14.7616C58.8517 16.2527 57.8584 18.1547 58.3523 20.5344C58.6116 21.7756 59.01 21.97 60.0662 21.3313C61.1741 20.6621 62.233 19.9068 63.341 19.2571C65.1503 18.2075 66.9896 17.2134 68.8181 16.2027C69.2192 15.9805 69.6204 15.7556 70.0297 15.5474L69.8469 15.6418C70.3027 14.4645 70.7693 13.2927 71.2114 12.1098C71.6289 11.0241 71.3315 10.6909 70.1717 10.6881ZM136.279 3.8407C136.672 2.65226 136.877 2.45233 138.058 2.78832C138.975 3.041 139.925 3.22426 140.648 3.97676C141.371 4.72925 141.789 5.59281 141.492 6.71739C141.251 7.62538 141.492 7.88361 142.37 7.90583C142.954 7.92249 143.541 7.90583 144.125 7.90583V7.70868C145.419 7.70868 146.712 7.67813 148.003 7.72811C148.41 7.73274 148.802 7.88316 149.111 8.15295C149.878 8.98597 149.474 10.0023 148.32 10.1689C147.501 10.2883 146.655 10.2994 145.82 10.3493C144.406 10.4326 142.992 10.5271 141.576 10.5854C140.654 10.6242 140.026 10.9741 139.649 11.8932C137.987 15.9528 136.014 19.8791 134.901 24.1636C134.467 25.8296 133.758 27.4207 133.236 29.0673C132.627 30.998 132.056 32.9417 131.522 34.8984C130.922 37.1003 130.376 39.3189 129.825 41.5348C129.609 42.3956 129.41 43.2619 129.279 44.1393C129.23 44.4392 129.38 44.7724 129.438 45.089C129.71 44.9446 130.065 44.8668 130.256 44.6447C130.807 44.0091 131.308 43.3305 131.754 42.6149C133.159 40.2677 134.538 37.9037 135.892 35.5232C136.779 33.9682 137.641 32.4021 138.509 30.836C137.944 29.2228 137.884 27.4262 138.258 25.5019C138.945 21.9561 140.373 18.6962 142.815 16.025C143.997 14.731 145.432 13.6675 146.791 12.5485C147.454 11.9932 148.254 12.0182 149.056 12.2708C149.818 12.4985 150.601 12.6513 151.343 12.9261C152.086 13.201 152.863 13.4815 153.464 13.9535C154.555 14.831 154.716 16.0611 154.402 17.4078C153.791 20.0262 152.713 22.4587 151.586 24.8689C151.106 25.95 150.56 26.999 149.949 28.0093C149.454 28.7409 148.871 29.4061 148.213 29.9891C147.7 30.4695 147.083 30.5445 146.352 30.2668C145.438 29.9608 144.609 29.4394 143.931 28.7452C143.634 28.4258 143.274 28.0427 142.87 28.3148C142.564 28.5817 142.369 28.9568 142.324 29.3644C142.193 30.1561 142.167 30.962 142.247 31.7607C142.458 33.2574 143.298 34.5569 145.198 34.2348C146.765 33.9547 148.222 33.2288 149.4 32.1411C151.428 30.3584 153.147 28.2842 154.839 26.1822C155.947 24.7939 157.118 23.4833 158.28 22.1532C158.46 22.0084 158.662 21.8948 158.878 21.8172C158.957 22.0782 159.151 22.3726 159.096 22.5947C158.551 24.4107 158.024 26.235 156.894 27.7983C155.663 29.5032 154.501 31.2609 153.21 32.9186C152.426 33.9067 151.551 34.8169 150.598 35.637C149.507 36.5978 148.142 36.8199 146.753 36.7477C144.764 36.8588 143.104 36.0369 141.614 34.9289C140.67 34.2458 139.864 33.3853 139.237 32.3938C139.138 32.777 139.018 33.1543 138.877 33.5239C137.835 36.2423 136.675 38.9219 135.455 41.5764C134.688 43.1711 133.836 44.7219 132.903 46.2219C132.085 47.5825 130.993 48.6599 129.421 49.1541C128.97 49.3218 128.488 49.3864 128.009 49.3432C127.53 49.3 127.067 49.1501 126.651 48.9042C124.214 47.4659 123.169 45.2639 123.75 42.3234C124.269 39.7077 124.842 37.1003 125.502 34.518C125.186 34.8788 124.848 35.2192 124.49 35.537C123 36.8643 120.86 36.8338 119.242 35.6481C118.088 34.8151 117.059 33.7849 116.532 32.3855C116.365 31.8693 116.224 31.3447 116.109 30.8138C116.256 28.8979 116.802 27.1125 117.348 25.3381C118.068 23.0918 118.775 20.837 119.564 18.6129C120.031 17.3023 120.656 16.0472 121.201 14.7671C121.474 14.109 121.785 13.4621 122.047 12.7956C122.386 11.9376 122.702 11.685 123.573 11.9432C124.378 12.1539 125.15 12.4793 125.865 12.9095C127.077 13.6898 127.287 14.8004 126.766 16.1333C125.601 19.1183 124.31 22.056 123.218 25.0688C122.416 27.2902 121.854 29.6032 121.19 31.8773C121.157 31.9561 121.142 32.0416 121.147 32.1272C121.218 32.4771 121.305 32.8214 121.384 33.1713C121.657 33.0491 122.02 32.9963 122.225 32.7909C123.775 31.2553 125.437 29.8253 126.659 27.9788C126.729 27.8728 126.807 27.7734 126.894 27.6817C127.153 27.404 127.358 27.3707 127.511 27.5651C128.564 24.369 129.694 21.1952 130.813 18.0242C131.522 16.0361 132.333 14.0868 133.07 12.1098C133.474 11.0296 133.176 10.6964 132.016 10.6937C129.56 10.6937 127.137 11.2768 124.684 11.3989C124.018 11.4323 123.349 11.4267 122.686 11.3989C122.32 11.3795 121.834 11.3379 121.843 10.8436C121.843 10.4077 122.309 10.4549 122.631 10.4049C125.063 10.0411 127.494 9.66905 129.929 9.31918C130.921 9.13746 131.924 9.0206 132.931 8.96931C133.351 8.98489 133.766 8.86384 134.114 8.62371C134.462 8.38358 134.727 8.03683 134.868 7.63371C135.392 6.38696 135.856 5.12354 136.279 3.8407ZM103.861 0.972336C104.205 0.0226946 104.584 -0.160569 105.613 0.11988C106.642 0.40033 107.431 1.10562 108.097 1.90532C108.354 2.17995 108.528 2.52457 108.597 2.89757C108.667 3.27057 108.628 3.656 108.487 4.0073C108.015 5.16797 107.524 6.33142 107.076 7.49765C106.819 8.16406 106.672 8.88601 106.38 9.53021C105.357 11.8127 104.227 14.0396 103.266 16.3554C102.306 18.6712 101.52 21.0037 100.685 23.3389C100.434 24.0358 100.253 24.7661 100.041 25.4825L100.292 25.5492C101.809 23.1278 103.294 20.6899 104.852 18.2936C106.012 16.5026 107.581 15.1087 109.306 13.8786C109.683 13.6269 110.108 13.4594 110.554 13.3871C110.999 13.3149 111.455 13.3395 111.89 13.4593C112.792 13.664 113.671 13.9666 114.51 14.3617C116.529 15.3225 117.021 17.2162 117.408 19.1044C117.725 20.6427 117.356 22.1255 117.135 23.6027C116.667 26.5255 115.634 29.3248 114.095 31.8384C113.852 32.2727 113.548 32.6692 113.194 33.0158C112.166 33.9654 111.142 34.9262 110.026 35.7703C108.585 36.8643 106.85 36.7338 105.114 36.1785C103.864 35.7786 102.568 35.4871 101.517 34.4874C101.102 34.0931 100.63 34.1043 100.18 34.593C99.4512 35.3871 98.5697 36.1063 97.3034 35.5981C96.4253 35.2406 95.6474 34.6684 95.0384 33.9321C93.8922 32.5798 93.6247 31.1554 93.6739 29.6893C92.9125 30.7777 92.1483 31.8634 91.3351 32.9103C90.551 33.8984 89.6765 34.8086 88.7234 35.6287C87.6318 36.5894 86.2673 36.8116 84.8783 36.7394C82.8888 36.8504 81.2296 36.0285 79.7396 34.9206C78.7957 34.2374 77.9889 33.3769 77.3626 32.3855C77.2631 32.7686 77.1428 33.1459 77.0024 33.5156C75.9599 36.234 74.8 38.9135 73.5802 41.5681C72.8112 43.1667 71.9566 44.7212 71.0204 46.2247C70.2017 47.5853 69.1101 48.6626 67.5382 49.1569C67.0867 49.3246 66.6045 49.3891 66.1258 49.346C65.6471 49.3028 65.1836 49.1529 64.7682 48.907C62.3312 47.4686 61.286 45.2667 61.8673 42.3261C62.7765 37.5469 63.9722 32.8288 65.4478 28.1982C66.5639 24.7883 67.7565 21.4035 68.96 18.0242C69.0564 17.7521 69.1556 17.48 69.2574 17.2079L69.1456 17.2912L68.829 17.5078C67.9639 18.0853 67.0388 18.5324 66.2474 19.2626C65.4559 19.9929 64.4489 20.4566 63.5429 21.0509C62.8088 21.5312 62.0692 22.0061 61.3597 22.5281C60.2162 23.3611 60.1153 23.8165 60.6965 25.0882C60.9067 25.5492 61.1496 25.9934 61.3597 26.4544C62.8525 29.7198 62.0883 32.652 59.9952 35.3399C59.1055 36.4811 57.782 36.7921 56.4066 36.856H56.1145H55.5278C53.3446 36.6588 51.2706 36.0952 49.5404 34.6346L49.5595 34.6513L49.4803 34.7818C48.3887 36.495 46.4348 36.8615 44.6172 35.7842L44.4917 35.7064C42.5459 34.4763 41.367 32.702 41.1842 30.339C41.1546 29.9402 41.0925 29.5445 40.9986 29.1561C40.9522 28.9701 40.7857 28.673 40.6793 28.6702C40.5795 28.6787 40.4828 28.7096 40.396 28.7604C40.3092 28.8113 40.2345 28.881 40.1771 28.9645C38.9409 30.7611 37.7865 32.6243 36.4766 34.3569C35.7234 35.3538 34.741 36.1562 33.311 36.0396C32.2194 35.9508 31.1032 36.0896 30.0989 35.3232C28.3633 34.0015 27.3044 32.3188 27.1816 29.7503C27.0509 27.6955 27.5702 25.652 28.6635 23.9192C29.8015 22.0921 30.7757 20.1373 32.0256 18.4046C33.0217 17.0163 34.3207 15.8834 35.4942 14.6477C35.8327 14.2267 36.2245 13.8533 36.6595 13.537C37.3541 13.1409 38.146 12.9559 38.9409 13.0039C41.1275 13.0555 43.2304 13.869 44.8983 15.3086C45.6952 15.975 45.9053 15.9195 46.3038 15.0309C46.3911 14.8365 46.4784 14.6422 46.563 14.445C47.1279 13.1316 47.278 13.0567 48.6589 13.2538C50.3181 13.5037 51.7754 15.403 51.3879 17.0496C51.0604 18.4241 50.4437 19.7041 49.9524 21.0231C49.3466 22.6641 48.7544 24.3107 48.1267 25.9435C47.7447 26.9431 47.2562 27.8872 46.9069 28.9062C46.5734 29.8817 46.3089 30.8801 46.1155 31.894C46.0527 32.2161 46.301 32.627 46.4075 33.0047C46.7431 32.9075 47.1579 32.9047 47.4008 32.6937L47.4718 32.6326C47.2344 32.1939 47.2917 31.7607 47.6819 31.2303C48.2025 30.516 48.8105 29.8721 49.4912 29.3144C51.2842 27.8649 53.1317 26.4849 54.9493 25.0799C55.1812 24.8994 55.4323 24.7439 55.6588 24.5551C56.3656 23.9636 56.4775 23.4999 56.0763 22.6641C55.6752 21.8283 55.3149 21.062 54.8865 20.2873C54.3437 19.3536 54.0222 18.3042 53.9474 17.2222C53.8725 16.1402 54.0464 15.0553 54.4553 14.0535C54.982 12.7068 56.0436 11.6877 57.097 10.7214C57.3147 10.5228 57.5494 10.3443 57.7983 10.1883C58.6989 9.61907 59.6104 9.22199 60.7457 9.46912C61.4897 9.62048 62.22 9.83504 62.9289 10.1105C64.6345 9.85509 66.3429 9.59685 68.0512 9.34972C69.0393 9.17324 70.0374 9.06102 71.0395 9.01374C71.46 9.02932 71.8744 8.90827 72.2228 8.66814C72.5712 8.42801 72.8354 8.08126 72.9771 7.67813C73.4983 6.43694 73.965 5.17908 74.388 3.88512C74.7809 2.69668 74.9856 2.49676 76.1673 2.83274C77.0842 3.08543 78.0339 3.26869 78.7571 4.02118C79.4803 4.77368 79.8978 5.63724 79.6004 6.76181C79.3602 7.6698 79.6004 7.92804 80.4791 7.95025C81.0631 7.96691 81.6499 7.95025 82.2339 7.95025V7.75311C83.5274 7.75311 84.821 7.72256 86.1118 7.77254C86.5187 7.77716 86.911 7.92759 87.2198 8.19738C87.9866 9.0304 87.5827 10.0467 86.4284 10.2133C85.6096 10.3327 84.7637 10.3438 83.9286 10.3938C82.515 10.4771 81.1013 10.5715 79.685 10.6298C78.7626 10.6687 78.1349 11.0185 77.7583 11.9376C76.14 15.9583 74.1533 19.8846 73.0371 24.158C72.6032 25.8241 71.8937 27.4151 71.3724 29.0617C70.7629 30.9925 70.1917 32.9362 69.6586 34.8928C69.0582 37.0948 68.5124 39.3134 67.9612 41.5292C67.7456 42.39 67.5436 43.2563 67.4154 44.1338C67.3662 44.4337 67.5163 44.7669 67.5736 45.0834C67.8465 44.939 68.2013 44.8613 68.3923 44.6392C68.9433 44.0036 69.4443 43.3249 69.8906 42.6094C71.2951 40.2621 72.6742 37.8982 74.0277 35.5176C74.9147 33.9626 75.777 32.3966 76.6449 30.8305C76.08 29.2172 76.0199 27.4207 76.3938 25.4964C77.0842 21.9505 78.5088 18.6906 80.9512 16.0194C82.1329 14.7255 83.5684 13.662 84.9274 12.543C85.5906 11.9876 86.3901 12.0126 87.1925 12.2653C87.9539 12.493 88.7371 12.6457 89.4794 12.9206C90.2217 13.1955 90.9994 13.4759 91.5998 13.948C92.6914 14.8254 92.8524 16.0555 92.5386 17.4022C91.9273 20.0207 90.8493 22.4531 89.7223 24.8633C89.2426 25.9445 88.6957 26.9934 88.0849 28.0038C87.593 28.7349 87.0126 29.4001 86.3574 29.9836C85.8443 30.464 85.2276 30.5389 84.4962 30.2613C83.5828 29.9552 82.7533 29.4338 82.0756 28.7396C81.7781 28.4203 81.4179 28.0371 81.014 28.3092C80.708 28.5761 80.5129 28.9512 80.4682 29.3588C80.3373 30.1505 80.3116 30.9565 80.3918 31.7551C80.6019 33.2518 81.4425 34.5513 83.3419 34.2292C84.9089 33.9491 86.366 33.2232 87.5445 32.1356C89.5722 30.3529 91.2914 28.2787 92.9834 26.1767C93.5292 25.4881 94.1105 24.8105 94.6891 24.1386C95.3955 21.559 96.2483 19.0233 97.2434 16.5442C98.0639 14.4302 98.9308 12.3384 99.8441 10.2688C100.636 8.47228 101.553 6.74238 102.344 4.94861C102.751 4.02396 103.111 3.07154 103.457 2.11635L103.861 0.972336Z" fill="black"/>
</svg>
