<svg width="32" height="32" viewBox="0 0 32 32" fill="none" xmlns="http://www.w3.org/2000/svg">
<rect width="32" height="32" fill="white" fill-opacity="0.01"/>
<path fill-rule="evenodd" clip-rule="evenodd" d="M14.666 2.66675C21.2934 2.66675 26.666 8.03933 26.666 14.6667C26.666 17.5001 25.684 20.1042 24.0418 22.1571L28.9421 27.0574C29.4628 27.5781 29.4628 28.4223 28.9421 28.943C28.4214 29.4637 27.5772 29.4637 27.0565 28.943L22.1562 24.0427C20.1033 25.6848 17.4993 26.6667 14.666 26.6667C8.0386 26.6667 2.66602 21.2942 2.66602 14.6667C2.66602 8.03933 8.0386 2.66675 14.666 2.66675ZM21.1415 21.3883C19.4632 23.0055 17.1807 24.0001 14.666 24.0001C9.51136 24.0001 5.33268 19.8214 5.33268 14.6667C5.33268 9.51209 9.51136 5.33341 14.666 5.33341C19.8207 5.33341 23.9993 9.51209 23.9993 14.6667C23.9993 17.1815 23.0048 19.464 21.3875 21.1423C21.342 21.1774 21.2982 21.2157 21.2565 21.2574C21.2148 21.2991 21.1765 21.3428 21.1415 21.3883Z" fill="black"/>
</svg>
