<svg width="24" height="24" viewBox="0 0 24 24" fill="none" xmlns="http://www.w3.org/2000/svg">
<rect width="24" height="24" fill="white" fill-opacity="0.01"/>
<path fill-rule="evenodd" clip-rule="evenodd" d="M4.29289 4.29289C4.48043 4.10536 4.73478 4 5 4H9C9.55228 4 10 3.55228 10 3C10 2.44772 9.55228 2 9 2H5C4.20435 2 3.44129 2.31607 2.87868 2.87868C2.31607 3.44129 2 4.20435 2 5V19C2 19.7957 2.31607 20.5587 2.87868 21.1213C3.44129 21.6839 4.20435 22 5 22H9C9.55228 22 10 21.5523 10 21C10 20.4477 9.55228 20 9 20H5C4.73478 20 4.48043 19.8946 4.29289 19.7071C4.10536 19.5196 4 19.2652 4 19V5C4 4.73478 4.10536 4.48043 4.29289 4.29289ZM15.2929 6.29289C15.6834 5.90237 16.3166 5.90237 16.7071 6.29289L22 12C22 12.016 21.9996 12.032 21.9989 12.048C21.9874 12.2877 21.8902 12.524 21.7071 12.7071L16.7071 17.7071C16.3166 18.0976 15.6834 18.0976 15.2929 17.7071C14.9024 17.3166 14.9024 16.6834 15.2929 16.2929L18.5858 13H9C8.44772 13 8 12.5523 8 12C8 11.4477 8.44772 11 9 11H18.5858L15.2929 7.70711C14.9024 7.31658 14.9024 6.68342 15.2929 6.29289ZM16.7071 6.29289L22 11.9908C21.9976 11.7379 21.9 11.4858 21.7071 11.2929L16.7071 6.29289Z" fill="black"/>
</svg>
