<svg width="24" height="24" viewBox="0 0 24 24" fill="none" xmlns="http://www.w3.org/2000/svg">
<rect width="24" height="24" fill="white" fill-opacity="0.01"/>
<path fill-rule="evenodd" clip-rule="evenodd" d="M20.8935 5.55395L12.0001 11.7793L3.10666 5.55395C3.27204 5.22692 3.61212 5 4.00009 5H20.0001C20.388 5 20.7281 5.22692 20.8935 5.55395ZM23 5.98327C23.0002 5.99295 23.0002 6.00264 23.0001 6.01231V18C23.0001 19.6523 21.6524 21 20.0001 21H4.00009C2.3478 21 1.00009 19.6523 1.00009 18V6.01225C0.999957 6.00241 0.999973 5.99256 1.00013 5.9827C1.0095 4.33832 2.35357 3 4.00009 3H20.0001C21.6468 3 22.991 4.33863 23 5.98327ZM3.00009 7.92066V18C3.00009 18.5477 3.45237 19 4.00009 19H20.0001C20.5478 19 21.0001 18.5477 21.0001 18V7.92066L12.5735 13.8192C12.2292 14.0603 11.7709 14.0603 11.4266 13.8192L3.00009 7.92066Z" fill="#7F7F7F"/>
</svg>
