<svg width="24" height="24" viewBox="0 0 24 24" fill="none" xmlns="http://www.w3.org/2000/svg">
<rect width="24" height="24" fill="white" fill-opacity="0.01"/>
<path fill-rule="evenodd" clip-rule="evenodd" d="M14.9997 7.9996C14.164 7.37191 13.1253 6.99996 11.9997 6.99996C9.23825 6.99996 6.99968 9.23854 6.99968 12C6.99968 14.7614 9.23825 17 11.9997 17C13.4877 17 14.8238 16.35 15.7397 15.3185C16.4649 16.3362 17.6548 17 18.9997 17C21.2088 17 22.9997 15.2091 22.9997 13V12C22.9994 6.88809 19.4776 2.45015 14.4996 1.28843C9.52153 0.126697 4.3992 2.54737 2.13626 7.13099C-0.126692 11.7146 1.06617 17.2531 5.01537 20.4988C8.96456 23.7445 14.6292 23.8419 18.6877 20.7339C19.1262 20.3981 19.2094 19.7704 18.8736 19.332C18.5378 18.8935 17.9102 18.8102 17.4717 19.146C14.1511 21.6889 9.5164 21.6092 6.28524 18.9537C3.05408 16.2981 2.0781 11.7666 3.92961 8.01638C5.78111 4.26614 9.9721 2.28559 14.045 3.23609C18.118 4.1866 20.9994 7.81764 20.9997 12V13C20.9997 14.1045 20.1042 15 18.9997 15C17.8951 15 16.9997 14.1045 16.9997 13V12V7.99996C16.9997 7.44768 16.552 6.99996 15.9997 6.99996C15.4475 6.99996 14.9999 7.44748 14.9997 7.9996ZM14.9997 12.0024C14.9984 13.6581 13.6557 15 11.9997 15C10.3428 15 8.99968 13.6568 8.99968 12C8.99968 10.3431 10.3428 8.99996 11.9997 8.99996C13.6557 8.99996 14.9984 10.3418 14.9997 11.9975C14.9997 11.9983 14.9997 11.9992 14.9997 12C14.9997 12.0008 14.9997 12.0016 14.9997 12.0024Z" fill="#7F7F7F"/>
</svg>
